<svg xmlns="http://www.w3.org/2000/svg" width="1000" height="435" viewBox="0 0 1000 435" role="img" aria-labelledby="title"><title id="title">Selected public credentials: Fortinet certification; Cisco course badges; Red Hat academy training; AWS academy training badges.</title><defs><linearGradient id="bg" x1="0" y1="0" x2="1" y2="1"><stop stop-color="#07101c"/><stop offset=".5" stop-color="#07151b"/><stop offset="1" stop-color="#0c1224"/></linearGradient><radialGradient id="aura" cx=".8" cy=".15" r=".8"><stop stop-color="#62dfff" stop-opacity=".17"/><stop offset="1" stop-color="#62dfff" stop-opacity="0"/></radialGradient><linearGradient id="edge" x1="0" x2="1"><stop stop-color="#62dfff" stop-opacity=".8"/><stop offset=".55" stop-color="#62dfff" stop-opacity=".25"/><stop offset="1" stop-color="#bca0ff" stop-opacity=".5"/></linearGradient><pattern id="grid" width="32" height="32" patternUnits="userSpaceOnUse"><path d="M32 0H0V32" stroke="#78adc7" stroke-width=".55" opacity=".22" fill="none"/></pattern><filter id="glow" x="-80%" y="-80%" width="260%" height="260%"><feGaussianBlur stdDeviation="6" result="b"/><feMerge><feMergeNode in="b"/><feMergeNode in="SourceGraphic"/></feMerge></filter><filter id="softGlow" x="-40%" y="-40%" width="180%" height="180%"><feGaussianBlur stdDeviation="16"/></filter><clipPath id="clip"><rect x="1" y="1" width="998" height="999" rx="22"/></clipPath></defs><rect x="1" y="1" width="998" height="433" rx="22" fill="url(#bg)" stroke="url(#edge)" /><rect x="2" y="2" width="996" height="431" rx="21" fill="url(#aura)" stroke="none" /><text x="28" y="35" font-family="Consolas,'Liberation Mono',monospace" font-size="12" fill="#5bffb3" letter-spacing="1">04 / CREDENTIAL ARCHIVE</text><text x="970" y="35" font-family="Consolas,'Liberation Mono',monospace" font-size="11" fill="#62dfff" text-anchor="end">EXPLORE PUBLIC CREDLY WALLET ↗</text><rect x="28" y="64" width="465" height="162" rx="15" fill="#0b1a28" stroke="#5bffb355" /><path d="M48 65L138 65" fill="none" stroke="#5bffb3" stroke-width="3"/><text x="50" y="109" font-family="Arial,Helvetica,sans-serif" font-size="25" fill="#5bffb3" font-weight="800" letter-spacing="1.5">FORTINET</text><g transform="translate(433 83) scale(0.6458333333333334)" fill="none" stroke="#5bffb3" stroke-width="1.8" stroke-linecap="round" stroke-linejoin="round"><path d="M24 5L40 11V23C40 34 32 40 24 44C16 40 8 34 8 23V11Z"/><path d="M17 24L22 29L32 18"/></g><text x="50" y="146" font-family="Arial,Helvetica,sans-serif" font-size="16" fill="#f2f8ff" >Certified Fundamentals</text><text x="50" y="173" font-family="Arial,Helvetica,sans-serif" font-size="16" fill="#f2f8ff" >Cybersecurity</text><text x="50" y="207" font-family="Consolas,'Liberation Mono',monospace" font-size="10" fill="#a6b9c8" letter-spacing=".8">CERTIFICATION</text><rect x="507" y="64" width="465" height="162" rx="15" fill="#0b1a28" stroke="#62dfff55" /><path d="M527 65L617 65" fill="none" stroke="#62dfff" stroke-width="3"/><text x="529" y="109" font-family="Arial,Helvetica,sans-serif" font-size="25" fill="#62dfff" font-weight="800" letter-spacing="1.5">CISCO</text><g transform="translate(912 83) scale(0.6458333333333334)" fill="none" stroke="#62dfff" stroke-width="1.8" stroke-linecap="round" stroke-linejoin="round"><path d="M24 5L40 11V23C40 34 32 40 24 44C16 40 8 34 8 23V11Z"/><path d="M17 24L22 29L32 18"/></g><text x="529" y="146" font-family="Arial,Helvetica,sans-serif" font-size="16" fill="#f2f8ff" >Ethical Hacker / Endpoint Security</text><text x="529" y="173" font-family="Arial,Helvetica,sans-serif" font-size="16" fill="#f2f8ff" >CCNA: ITN + SRWE</text><text x="529" y="207" font-family="Consolas,'Liberation Mono',monospace" font-size="10" fill="#a6b9c8" letter-spacing=".8">COURSE-COMPLETION BADGES</text><rect x="28" y="247" width="465" height="162" rx="15" fill="#0b1a28" stroke="#ff9b9f55" /><path d="M48 248L138 248" fill="none" stroke="#ff9b9f" stroke-width="3"/><text x="50" y="292" font-family="Arial,Helvetica,sans-serif" font-size="25" fill="#ff9b9f" font-weight="800" letter-spacing="1.5">RED HAT</text><g transform="translate(433 266) scale(0.6458333333333334)" fill="none" stroke="#ff9b9f" stroke-width="1.8" stroke-linecap="round" stroke-linejoin="round"><path d="M24 5L40 11V23C40 34 32 40 24 44C16 40 8 34 8 23V11Z"/><path d="M17 24L22 29L32 18"/></g><text x="50" y="329" font-family="Arial,Helvetica,sans-serif" font-size="16" fill="#f2f8ff" >System Administration RH124 / RH134</text><text x="50" y="356" font-family="Arial,Helvetica,sans-serif" font-size="16" fill="#f2f8ff" >OpenShift Administration DO180</text><text x="50" y="390" font-family="Consolas,'Liberation Mono',monospace" font-size="10" fill="#a6b9c8" letter-spacing=".8">ACADEMY TRAINING</text><rect x="507" y="247" width="465" height="162" rx="15" fill="#0b1a28" stroke="#ffd18b55" /><path d="M527 248L617 248" fill="none" stroke="#ffd18b" stroke-width="3"/><text x="529" y="292" font-family="Arial,Helvetica,sans-serif" font-size="25" fill="#ffd18b" font-weight="800" letter-spacing="1.5">AWS</text><g transform="translate(912 266) scale(0.6458333333333334)" fill="none" stroke="#ffd18b" stroke-width="1.8" stroke-linecap="round" stroke-linejoin="round"><path d="M24 5L40 11V23C40 34 32 40 24 44C16 40 8 34 8 23V11Z"/><path d="M17 24L22 29L32 18"/></g><text x="529" y="329" font-family="Arial,Helvetica,sans-serif" font-size="16" fill="#f2f8ff" >Cloud Foundations / Data Engineering</text><text x="529" y="356" font-family="Arial,Helvetica,sans-serif" font-size="16" fill="#f2f8ff" >Cloud Architecting / GenAI Foundations</text><text x="529" y="390" font-family="Consolas,'Liberation Mono',monospace" font-size="10" fill="#a6b9c8" letter-spacing=".8">ACADEMY TRAINING BADGES</text></svg>