<svg xmlns="http://www.w3.org/2000/svg" width="920" height="366" viewBox="0 0 920 366" role="img" aria-labelledby="title"><title id="title">Mahir Faisal — Aspiring SOC Analyst, Cybersecurity, Digital Forensics and CTFs</title><defs><pattern id="grid" width="30" height="30" patternUnits="userSpaceOnUse"><path d="M30 0H0V30" fill="none" stroke="#214632" stroke-width=".5"/></pattern><radialGradient id="halo"><stop stop-color="#28d967" stop-opacity=".18"/><stop offset="1" stop-color="#07100d" stop-opacity="0"/></radialGradient><linearGradient id="arc"><stop stop-color="#48ff91"/><stop offset="1" stop-color="#48ff91" stop-opacity="0"/></linearGradient></defs><rect x="1" y="1" width="918" height="364" rx="18" fill="#07100d" stroke="#203b2e"/><rect x="2" y="2" width="916" height="362" rx="17" fill="url(#grid)" opacity=".3"/><style>.orbit{transform-origin:727px 193px;animation:orbit 45s linear infinite}@keyframes orbit{to{transform:rotate(360deg)}}@media(prefers-reduced-motion:reduce){.orbit{animation:none}}</style><text x="38" y="34" font-family="Consolas,'Liberation Mono',monospace" font-size="11" fill="#9ab0a1" letter-spacing="1.5">MF / SECURITY PORTFOLIO</text><text x="883" y="34" font-family="Consolas,'Liberation Mono',monospace" font-size="12" fill="#9ab0a1" text-anchor="end">@Mahir-bit702</text><path d="M28 51H892" stroke="#203b2e"/><text x="40" y="92" font-family="Consolas,'Liberation Mono',monospace" font-size="12" fill="#48ff91" letter-spacing="2">CYBERSECURITY / APU</text><text x="36" y="167" font-family="Arial,Helvetica,sans-serif" font-size="76" fill="#eef6f0" font-weight="900" letter-spacing="-3">MAHIR</text><text x="36" y="243" font-family="Arial,Helvetica,sans-serif" font-size="76" fill="#48ff91" font-weight="900" letter-spacing="-3">FAISAL</text><text x="40" y="282" font-family="Arial,Helvetica,sans-serif" font-size="24" fill="#eef6f0" >Aspiring SOC Analyst</text><text x="40" y="320" font-family="Consolas,'Liberation Mono',monospace" font-size="14" fill="#9ab0a1" >Investigate. Understand. Defend.</text><circle cx="727" cy="193" r="153" fill="url(#halo)"/><circle cx="727" cy="193" r="111" fill="none" stroke="#244933"/><circle cx="727" cy="193" r="86" fill="none" stroke="#30583c" stroke-dasharray="2 9"/><path d="M588 193H866M727 54V332" stroke="#244933" opacity=".5"/><path d="M853.0 193.0L865.0 193.0" stroke="#48ff91" stroke-width="1.5"/><path d="M850.6 217.6L856.5 218.8" stroke="#526d5c" stroke-width="1"/><path d="M843.4 241.2L849.0 243.5" stroke="#526d5c" stroke-width="1"/><path d="M831.8 263.0L836.8 266.3" stroke="#526d5c" stroke-width="1"/><path d="M816.1 282.1L824.6 290.6" stroke="#48ff91" stroke-width="1.5"/><path d="M797.0 297.8L800.3 302.8" stroke="#526d5c" stroke-width="1"/><path d="M775.2 309.4L777.5 315.0" stroke="#526d5c" stroke-width="1"/><path d="M751.6 316.6L752.8 322.5" stroke="#526d5c" stroke-width="1"/><path d="M727.0 319.0L727.0 331.0" stroke="#48ff91" stroke-width="1.5"/><path d="M702.4 316.6L701.2 322.5" stroke="#526d5c" stroke-width="1"/><path d="M678.8 309.4L676.5 315.0" stroke="#526d5c" stroke-width="1"/><path d="M657.0 297.8L653.7 302.8" stroke="#526d5c" stroke-width="1"/><path d="M637.9 282.1L629.4 290.6" stroke="#48ff91" stroke-width="1.5"/><path d="M622.2 263.0L617.2 266.3" stroke="#526d5c" stroke-width="1"/><path d="M610.6 241.2L605.0 243.5" stroke="#526d5c" stroke-width="1"/><path d="M603.4 217.6L597.5 218.8" stroke="#526d5c" stroke-width="1"/><path d="M601.0 193.0L589.0 193.0" stroke="#48ff91" stroke-width="1.5"/><path d="M603.4 168.4L597.5 167.2" stroke="#526d5c" stroke-width="1"/><path d="M610.6 144.8L605.0 142.5" stroke="#526d5c" stroke-width="1"/><path d="M622.2 123.0L617.2 119.7" stroke="#526d5c" stroke-width="1"/><path d="M637.9 103.9L629.4 95.4" stroke="#48ff91" stroke-width="1.5"/><path d="M657.0 88.2L653.7 83.2" stroke="#526d5c" stroke-width="1"/><path d="M678.8 76.6L676.5 71.0" stroke="#526d5c" stroke-width="1"/><path d="M702.4 69.4L701.2 63.5" stroke="#526d5c" stroke-width="1"/><path d="M727.0 67.0L727.0 55.0" stroke="#48ff91" stroke-width="1.5"/><path d="M751.6 69.4L752.8 63.5" stroke="#526d5c" stroke-width="1"/><path d="M775.2 76.6L777.5 71.0" stroke="#526d5c" stroke-width="1"/><path d="M797.0 88.2L800.3 83.2" stroke="#526d5c" stroke-width="1"/><path d="M816.1 103.9L824.6 95.4" stroke="#48ff91" stroke-width="1.5"/><path d="M831.8 123.0L836.8 119.7" stroke="#526d5c" stroke-width="1"/><path d="M843.4 144.8L849.0 142.5" stroke="#526d5c" stroke-width="1"/><path d="M850.6 168.4L856.5 167.2" stroke="#526d5c" stroke-width="1"/><g class="orbit"><path d="M616 193A111 111 0 0 1 727 82" stroke="url(#arc)" stroke-width="3" fill="none"/><circle cx="727" cy="82" r="4" fill="#48ff91"/></g><path d="M727 130L781 161V224L727 255L673 224V161Z" fill="#0c2114" stroke="#48ff91" stroke-width="1.5"/><path d="M727 142L771 167V218L727 243L683 218V167Z" fill="none" stroke="#31533b"/><text x="727" y="211" font-family="Consolas,'Liberation Mono',monospace" font-size="48" fill="#48ff91" text-anchor="middle" font-weight="700">&gt;_</text><text x="727" y="319" font-family="Consolas,'Liberation Mono',monospace" font-size="12" fill="#48ff91" text-anchor="middle" letter-spacing="2">SIGNAL &gt; NOISE</text></svg>
