<svg xmlns="http://www.w3.org/2000/svg" width="490" height="405" viewBox="0 0 490 405" role="img" aria-labelledby="title"><title id="title">Terra Climate Action Tracker — measurable 90-day action plans from emissions baselines. Illustrative planning concept.</title><defs><linearGradient id="bg" x1="0" y1="0" x2="1" y2="1"><stop stop-color="#07101c"/><stop offset=".5" stop-color="#07151b"/><stop offset="1" stop-color="#0c1224"/></linearGradient><radialGradient id="aura" cx=".8" cy=".15" r=".8"><stop stop-color="#62dfff" stop-opacity=".17"/><stop offset="1" stop-color="#62dfff" stop-opacity="0"/></radialGradient><linearGradient id="edge" x1="0" x2="1"><stop stop-color="#62dfff" stop-opacity=".8"/><stop offset=".55" stop-color="#62dfff" stop-opacity=".25"/><stop offset="1" stop-color="#bca0ff" stop-opacity=".5"/></linearGradient><pattern id="grid" width="32" height="32" patternUnits="userSpaceOnUse"><path d="M32 0H0V32" stroke="#78adc7" stroke-width=".55" opacity=".22" fill="none"/></pattern><filter id="glow" x="-80%" y="-80%" width="260%" height="260%"><feGaussianBlur stdDeviation="6" result="b"/><feMerge><feMergeNode in="b"/><feMergeNode in="SourceGraphic"/></feMerge></filter><filter id="softGlow" x="-40%" y="-40%" width="180%" height="180%"><feGaussianBlur stdDeviation="16"/></filter><clipPath id="clip"><rect x="1" y="1" width="998" height="999" rx="22"/></clipPath></defs><rect x="1" y="1" width="488" height="403" rx="22" fill="url(#bg)" stroke="url(#edge)" /><rect x="2" y="2" width="486" height="401" rx="21" fill="url(#aura)" stroke="none" />
<text x="28" y="32" font-family="Consolas,'Liberation Mono',monospace" font-size="11" fill="#62dfff" letter-spacing="1.5">CASE FILE 03 / CLIMATE ACTION</text>
<g transform="translate(398 43) scale(1.125)" fill="none" stroke="#62dfff" stroke-width="1.8" stroke-linecap="round" stroke-linejoin="round"><circle cx="24" cy="24" r="19"/><ellipse cx="24" cy="24" rx="9" ry="19"/><path d="M5 24H43M9 13H39M9 35H39"/></g>
<text x="28" y="94" font-family="Arial,Helvetica,sans-serif" font-size="46" fill="#f2f8ff" font-weight="800" letter-spacing="-1.5">Terra</text>
<text x="30" y="128" font-family="Consolas,'Liberation Mono',monospace" font-size="12" fill="#62dfff" letter-spacing="1.5">CLIMATE ACTION TRACKER</text>
<text x="28" y="161" font-family="Arial,Helvetica,sans-serif" font-size="17" fill="#a6b9c8" >Emissions baselines into measurable</text>
<text x="28" y="188" font-family="Arial,Helvetica,sans-serif" font-size="17" fill="#a6b9c8" >90-day climate action plans.</text>
<rect x="26" y="211" width="438" height="130" rx="12" fill="#09242d" stroke="#326576" />
<text x="42" y="233" font-family="Consolas,'Liberation Mono',monospace" font-size="10" fill="#62dfff" >PLANNING / INTERFACE CONCEPT</text>
<rect x="41" y="247" width="96" height="75" rx="8" fill="#10313a" stroke="#365b66" /><text x="89" y="278" font-family="Arial,Helvetica,sans-serif" font-size="29" fill="#62dfff" text-anchor="middle" font-weight="800">90</text><text x="89" y="308" font-family="Consolas,'Liberation Mono',monospace" font-size="10" fill="#f2f8ff" text-anchor="middle">DAY PLAN</text>
<path d="M154 284L446 284" fill="none" stroke="#315d65" />
<path d="M154 280C177 280 189 254 215 256S255 295 282 271S324 250 350 263S400 251 446 250" fill="none" stroke="#5bffb3" stroke-width="3"/>
<circle cx="215" cy="256" r="4" fill="#5bffb3" /><circle cx="350" cy="263" r="4" fill="#62dfff" /><circle cx="446" cy="250" r="4" fill="#5bffb3" />
<text x="154" y="310" font-family="Consolas,'Liberation Mono',monospace" font-size="10" fill="#a6b9c8" >BASELINE → PLAN → ACTION</text>
<path d="M28 358L462 358" fill="none" stroke="#244651" /><text x="28" y="382" font-family="Consolas,'Liberation Mono',monospace" font-size="11" fill="#62dfff" >PYTHON / FASTAPI / AGENTS SDK</text><text x="458" y="384" font-family="Consolas,'Liberation Mono',monospace" font-size="20" fill="#62dfff" text-anchor="end">↗</text>
</svg>